<svg id="Group_5826" data-name="Group 5826" xmlns="http://www.w3.org/2000/svg" xmlns:xlink="http://www.w3.org/1999/xlink" width="161.331" height="114.102" viewBox="0 0 161.331 114.102">
  <defs>
    <clipPath id="clip-path">
      <rect id="Rectangle_1008" data-name="Rectangle 1008" width="161.331" height="114.102" fill="none"/>
    </clipPath>
  </defs>
  <g id="Group_4418" data-name="Group 4418" clip-path="url(#clip-path)">
    <path id="Path_3534" data-name="Path 3534" d="M79.992,207.09v-8.682h1.267v3.226h.076a3.553,3.553,0,0,1,.318-.471,1.823,1.823,0,0,1,.576-.468,2.032,2.032,0,0,1,.975-.2,2.541,2.541,0,0,1,1.407.4,2.693,2.693,0,0,1,.973,1.149,4.8,4.8,0,0,1,0,3.614,2.729,2.729,0,0,1-.966,1.157,2.494,2.494,0,0,1-1.4.4,2.059,2.059,0,0,1-.969-.2,1.829,1.829,0,0,1-.587-.466,3.486,3.486,0,0,1-.326-.475H81.23v1.013Zm1.242-3.256a3.338,3.338,0,0,0,.2,1.2,1.811,1.811,0,0,0,.577.808,1.627,1.627,0,0,0,1.873-.013,1.866,1.866,0,0,0,.579-.824,3.3,3.3,0,0,0,.2-1.175,3.264,3.264,0,0,0-.193-1.157,1.8,1.8,0,0,0-.577-.81A1.679,1.679,0,0,0,82,201.854a1.742,1.742,0,0,0-.575.793,3.315,3.315,0,0,0-.195,1.187" transform="translate(-38.474 -95.429)"/>
    <path id="Path_3535" data-name="Path 3535" d="M94.532,211.542a2.778,2.778,0,0,1-.517-.045,1.672,1.672,0,0,1-.348-.1l.306-1.039a2.048,2.048,0,0,0,.619.081.755.755,0,0,0,.481-.2,1.585,1.585,0,0,0,.371-.623l.157-.432-2.382-6.6h1.357l1.649,5.053h.067l1.649-5.053H99.3l-2.683,7.381a2.976,2.976,0,0,1-.474.863,1.861,1.861,0,0,1-.687.532,2.241,2.241,0,0,1-.924.178" transform="translate(-44.835 -97.44)"/>
    <path id="Path_3536" data-name="Path 3536" d="M121.394,201.121h-1.322a2.022,2.022,0,0,0-.284-.746,2.071,2.071,0,0,0-.509-.547,2.189,2.189,0,0,0-.672-.339,2.655,2.655,0,0,0-.786-.114,2.441,2.441,0,0,0-1.342.377,2.558,2.558,0,0,0-.933,1.107,4.841,4.841,0,0,0,0,3.569,2.521,2.521,0,0,0,.935,1.1,2.452,2.452,0,0,0,1.335.373,2.688,2.688,0,0,0,.782-.112,2.2,2.2,0,0,0,.672-.333,2.069,2.069,0,0,0,.511-.54,2.031,2.031,0,0,0,.291-.735l1.322,0a3.548,3.548,0,0,1-.409,1.177,3.27,3.27,0,0,1-.776.924,3.51,3.51,0,0,1-1.079.6,3.983,3.983,0,0,1-1.322.212,3.788,3.788,0,0,1-2.009-.536,3.7,3.7,0,0,1-1.388-1.537,5.87,5.87,0,0,1,0-4.776,3.724,3.724,0,0,1,1.39-1.534,3.779,3.779,0,0,1,2.005-.536,4.111,4.111,0,0,1,1.291.2,3.472,3.472,0,0,1,1.079.577,3.214,3.214,0,0,1,.793.924,3.6,3.6,0,0,1,.424,1.244" transform="translate(-54.784 -95.319)"/>
    <path id="Path_3537" data-name="Path 3537" d="M134.092,209.154a2.99,2.99,0,0,1-1.6-.419,2.828,2.828,0,0,1-1.06-1.175,3.893,3.893,0,0,1-.377-1.763,3.933,3.933,0,0,1,.377-1.772,2.827,2.827,0,0,1,1.06-1.179,3.255,3.255,0,0,1,3.2,0,2.831,2.831,0,0,1,1.06,1.179,3.932,3.932,0,0,1,.377,1.772,3.893,3.893,0,0,1-.377,1.763,2.832,2.832,0,0,1-1.06,1.175,2.99,2.99,0,0,1-1.6.419m0-1.064a1.518,1.518,0,0,0,.984-.313,1.851,1.851,0,0,0,.579-.835,3.581,3.581,0,0,0,0-2.3,1.876,1.876,0,0,0-.579-.841,1.5,1.5,0,0,0-.984-.318,1.519,1.519,0,0,0-.99.318,1.868,1.868,0,0,0-.581.841,3.591,3.591,0,0,0,0,2.3,1.843,1.843,0,0,0,.581.835,1.534,1.534,0,0,0,.99.313" transform="translate(-63.035 -97.361)"/>
    <path id="Path_3538" data-name="Path 3538" d="M148.107,207.217a2.5,2.5,0,0,1-1.406-.4,2.707,2.707,0,0,1-.966-1.157,4.264,4.264,0,0,1-.35-1.808,4.211,4.211,0,0,1,.354-1.806,2.689,2.689,0,0,1,.973-1.149,2.535,2.535,0,0,1,1.4-.4,2.043,2.043,0,0,1,.977.2,1.8,1.8,0,0,1,.577.468,4.12,4.12,0,0,1,.32.471h.076v-3.226h1.268v8.682H150.1v-1.013h-.106a3.469,3.469,0,0,1-.328.475,1.866,1.866,0,0,1-.588.466,2.045,2.045,0,0,1-.966.2m.28-1.081a1.48,1.48,0,0,0,.926-.29,1.791,1.791,0,0,0,.577-.808,3.374,3.374,0,0,0,.2-1.2,3.314,3.314,0,0,0-.195-1.187,1.746,1.746,0,0,0-.572-.793,1.678,1.678,0,0,0-1.886.012,1.8,1.8,0,0,0-.575.81,3.269,3.269,0,0,0-.193,1.157,3.329,3.329,0,0,0,.2,1.175,1.841,1.841,0,0,0,.579.824,1.477,1.477,0,0,0,.947.3" transform="translate(-69.926 -95.429)"/>
    <path id="Path_3539" data-name="Path 3539" d="M164.909,206.4v-3.811h1.272V209.1h-1.246v-1.128h-.068a2.022,2.022,0,0,1-.718.867,2.09,2.09,0,0,1-1.228.346,2.178,2.178,0,0,1-1.108-.278,1.9,1.9,0,0,1-.755-.825,3.007,3.007,0,0,1-.274-1.352v-4.142h1.267v3.989a1.489,1.489,0,0,0,.369,1.06,1.251,1.251,0,0,0,.958.394,1.564,1.564,0,0,0,.71-.179,1.509,1.509,0,0,0,.59-.538,1.623,1.623,0,0,0,.231-.916" transform="translate(-77.333 -97.44)"/>
    <path id="Path_3540" data-name="Path 3540" d="M174.917,209.01V202.5h1.225v1.034h.068a1.58,1.58,0,0,1,.63-.828,1.792,1.792,0,0,1,1.024-.3c.079,0,.173,0,.282.008s.194.013.256.021v1.212a2.584,2.584,0,0,0-.271-.049,2.817,2.817,0,0,0-.39-.028,1.658,1.658,0,0,0-.8.188,1.442,1.442,0,0,0-.553.522,1.423,1.423,0,0,0-.2.757v3.976Z" transform="translate(-84.13 -97.349)"/>
    <path id="Path_3541" data-name="Path 3541" d="M185.712,209.166a2.638,2.638,0,0,1-1.12-.231,1.854,1.854,0,0,1-.79-.672,1.924,1.924,0,0,1-.291-1.081,1.753,1.753,0,0,1,.212-.907,1.569,1.569,0,0,1,.572-.564,2.984,2.984,0,0,1,.806-.314,8.019,8.019,0,0,1,.907-.161q.585-.068.949-.113a1.381,1.381,0,0,0,.53-.146.358.358,0,0,0,.165-.331v-.03a1.147,1.147,0,0,0-.311-.86,1.271,1.271,0,0,0-.926-.306,1.611,1.611,0,0,0-1.007.282,1.521,1.521,0,0,0-.507.625l-1.191-.271a2.29,2.29,0,0,1,.621-.96,2.526,2.526,0,0,1,.943-.535,3.753,3.753,0,0,1,1.124-.167,4.086,4.086,0,0,1,.829.091,2.483,2.483,0,0,1,.822.333,1.836,1.836,0,0,1,.63.689,2.394,2.394,0,0,1,.246,1.16v4.324h-1.238v-.891h-.051a1.794,1.794,0,0,1-.369.483,1.947,1.947,0,0,1-.631.394,2.458,2.458,0,0,1-.924.157m.276-1.017a1.831,1.831,0,0,0,.9-.208,1.469,1.469,0,0,0,.572-.545,1.407,1.407,0,0,0,.2-.722v-.839a.647.647,0,0,1-.261.125,3.655,3.655,0,0,1-.439.1c-.164.027-.323.051-.479.072l-.39.053a3.129,3.129,0,0,0-.672.157,1.149,1.149,0,0,0-.483.316.8.8,0,0,0-.18.544.806.806,0,0,0,.348.711,1.529,1.529,0,0,0,.886.239" transform="translate(-88.264 -97.361)"/>
    <path id="Path_3542" data-name="Path 3542" d="M198.92,205.156v3.866h-1.267v-6.512h1.217v1.06h.08a1.863,1.863,0,0,1,.706-.831,2.181,2.181,0,0,1,1.215-.314,2.362,2.362,0,0,1,1.166.278,1.885,1.885,0,0,1,.776.824,2.989,2.989,0,0,1,.276,1.353v4.142H201.82v-3.989a1.575,1.575,0,0,0-.369-1.109,1.311,1.311,0,0,0-1.013-.4,1.575,1.575,0,0,0-.782.191,1.362,1.362,0,0,0-.539.557,1.844,1.844,0,0,0-.2.884" transform="translate(-95.066 -97.361)"/>
    <path id="Path_3543" data-name="Path 3543" d="M214.322,209.154a2.977,2.977,0,0,1-1.626-.43,2.818,2.818,0,0,1-1.045-1.189,4.315,4.315,0,0,1,.009-3.491,2.858,2.858,0,0,1,1.051-1.189,2.931,2.931,0,0,1,1.6-.428,3.068,3.068,0,0,1,1.322.273,2.406,2.406,0,0,1,.939.766,2.319,2.319,0,0,1,.426,1.149h-1.234a1.484,1.484,0,0,0-.465-.788,1.382,1.382,0,0,0-.969-.331,1.573,1.573,0,0,0-.926.278,1.809,1.809,0,0,0-.617.788,3.03,3.03,0,0,0-.22,1.206,3.172,3.172,0,0,0,.216,1.229,1.816,1.816,0,0,0,.612.8,1.674,1.674,0,0,0,1.59.151,1.343,1.343,0,0,0,.5-.384,1.473,1.473,0,0,0,.282-.6H217a2.406,2.406,0,0,1-.412,1.128,2.37,2.37,0,0,1-.918.78,3.008,3.008,0,0,1-1.346.284" transform="translate(-101.623 -97.361)"/>
    <path id="Path_3544" data-name="Path 3544" d="M227.906,209.154a3.177,3.177,0,0,1-1.655-.413,2.758,2.758,0,0,1-1.069-1.166,4.337,4.337,0,0,1,0-3.529,2.807,2.807,0,0,1,2.635-1.619,3.2,3.2,0,0,1,1.069.182,2.586,2.586,0,0,1,.928.572,2.694,2.694,0,0,1,.649,1.011,4.234,4.234,0,0,1,.237,1.507v.449h-5.176v-.95h3.934a1.887,1.887,0,0,0-.2-.888,1.547,1.547,0,0,0-.57-.612,1.615,1.615,0,0,0-.858-.225,1.654,1.654,0,0,0-.931.261,1.76,1.76,0,0,0-.611.678,1.963,1.963,0,0,0-.214.905v.742a2.441,2.441,0,0,0,.231,1.11,1.628,1.628,0,0,0,.647.7,1.908,1.908,0,0,0,.971.239,1.975,1.975,0,0,0,.658-.1,1.4,1.4,0,0,0,.513-.311,1.367,1.367,0,0,0,.331-.513l1.2.216a2.168,2.168,0,0,1-.515.926,2.5,2.5,0,0,1-.929.615,3.465,3.465,0,0,1-1.27.219" transform="translate(-108.126 -97.361)"/>
    <path id="Path_3545" data-name="Path 3545" d="M0,158.8V138.039H5.636v8.394H5.92l6.244-8.394h6.569l-7.015,9.245L18.9,158.8H12.164L7.5,151.014l-1.865,2.433V158.8Z" transform="translate(0 -66.393)"/>
    <path id="Path_3546" data-name="Path 3546" d="M47.9,158.8H41.818l6.853-20.761h7.7L63.228,158.8H57.145L52.6,143.756h-.162Zm-1.136-8.191H58.2v4.217H46.765Z" transform="translate(-20.113 -66.393)"/>
    <path id="Path_3547" data-name="Path 3547" d="M83.152,142.58v-4.541H101.2v4.541H94.951V158.8H89.4V142.58Z" transform="translate(-39.994 -66.393)"/>
    <path id="Path_3548" data-name="Path 3548" d="M125.255,158.8h-6.082l6.853-20.761h7.7l6.853,20.761H134.5l-4.542-15.043H129.8Zm-1.135-8.191h11.435v4.217H124.12Z" transform="translate(-57.319 -66.393)"/>
    <path id="Path_3549" data-name="Path 3549" d="M167.851,158.8V138.039h5.636v16.22h8.394V158.8Z" transform="translate(-80.732 -66.393)"/>
    <path id="Path_3550" data-name="Path 3550" d="M193.851,138.039h6.285l4.055,8.434h.162l4.055-8.434h6.285l-7.623,14.233V158.8h-5.6v-6.528Z" transform="translate(-93.237 -66.393)"/>
    <path id="Path_3551" data-name="Path 3551" d="M249.725,144.264a2.2,2.2,0,0,0-.755-1.581,3.119,3.119,0,0,0-2.043-.568,4.1,4.1,0,0,0-1.424.208,1.749,1.749,0,0,0-.816.563,1.372,1.372,0,0,0-.274.811,1.268,1.268,0,0,0,.136.674,1.522,1.522,0,0,0,.5.537,3.793,3.793,0,0,0,.882.431,9.416,9.416,0,0,0,1.277.345l1.7.365a12.8,12.8,0,0,1,2.95.963,7.1,7.1,0,0,1,2.007,1.4,5.138,5.138,0,0,1,1.151,1.809,6.463,6.463,0,0,1,.38,2.19,5.864,5.864,0,0,1-1.024,3.467,6.257,6.257,0,0,1-2.894,2.159,12.331,12.331,0,0,1-4.516.74,12.713,12.713,0,0,1-4.719-.8,6.544,6.544,0,0,1-3.122-2.468,7.62,7.62,0,0,1-1.12-4.273h5.352a3.172,3.172,0,0,0,.476,1.6,2.65,2.65,0,0,0,1.2.984,4.648,4.648,0,0,0,1.85.334,4.417,4.417,0,0,0,1.51-.223,2.037,2.037,0,0,0,.923-.619,1.46,1.46,0,0,0,.324-.9,1.317,1.317,0,0,0-.309-.836,2.56,2.56,0,0,0-.978-.649,10.708,10.708,0,0,0-1.835-.542l-2.068-.446a9.453,9.453,0,0,1-4.344-2,4.829,4.829,0,0,1-1.576-3.837,5.711,5.711,0,0,1,1.059-3.462,7.031,7.031,0,0,1,2.97-2.316,10.806,10.806,0,0,1,4.364-.831,10.365,10.365,0,0,1,4.349.841,6.555,6.555,0,0,1,2.833,2.367,6.426,6.426,0,0,1,1.009,3.563Z" transform="translate(-114.475 -66.13)"/>
    <path id="Path_3552" data-name="Path 3552" d="M276.068,142.58v-4.541h18.044v4.541h-6.245V158.8h-5.555V142.58Z" transform="translate(-132.781 -66.393)"/>
    <path id="Path_3553" data-name="Path 3553" d="M174.626,51.685,150.745,32.356a2.872,2.872,0,0,0-3.585-.022l-7.572,5.975A2.871,2.871,0,0,0,138.881,42l12.03,20.816a2.872,2.872,0,0,0,3.515,1.244L173.849,56.6a2.871,2.871,0,0,0,.777-4.912" transform="translate(-66.612 -15.255)" fill="#ffce00"/>
    <path id="Path_3554" data-name="Path 3554" d="M116.305.425,129,10.7a1.9,1.9,0,0,1-.018,2.967L112.62,26.583a1.9,1.9,0,0,1-3.052-1.788l3.667-23.19a1.9,1.9,0,0,1,3.071-1.18" transform="translate(-52.687 0)" fill="#d40d47"/>
    <path id="Path_3555" data-name="Path 3555" d="M104.269,88.325,125.4,80.209a3.024,3.024,0,0,0,1.534-4.336L116.855,57.936a3.023,3.023,0,0,0-4.491-.861l-8.4,6.395a3.022,3.022,0,0,0-1.114,1.9L100.2,85.029a3.024,3.024,0,0,0,4.071,3.3" transform="translate(-48.174 -27.139)" fill="#ed7726"/>
  </g>
</svg>
